<svg id="a342e698-fa00-4a8e-9363-1bd7bbb86d22" data-name="epic-games" xmlns="http://www.w3.org/2000/svg" viewBox="0 0 647.17 750.98"><defs><style>.e4468206-d292-4a92-8662-887e19f8ecc4{fill:#fff;fill-rule:evenodd;}</style></defs><path id="bfc544b7-3fe9-42fa-bfad-293828f55b51" data-name="logo" class="e4468206-d292-4a92-8662-887e19f8ecc4" d="M276.68,244.6h-18V138.46h18c11.05,0,16.37,5.35,16.37,16.86v72.41C293.05,239.25,287.73,244.6,276.68,244.6ZM244.43,509.06l-.36-1.08-.47-1.2-.48-1.07-.35-1.08-.47-1.08-.48-1.2-.36-1.08L241,500.2l-.47-1.08-.36-1.08-.48-1.2-.35-1.07-.48-1.09-.48-1.07-.35-1.08-.48-1.2-.47-1.08-.36-1.07-.48-1.08-.47-1.2-.36-1.08-.48-1.08-.47,1.08-.36,1.08-.48,1.2-.47,1.08-.36,1.07-.47,1.08-.48,1.2-.47,1.08-.36,1.07-.48,1.09-.48,1.07-.35,1.2-.48,1.08-.48,1.08-.35,1.07-.48,1.08-.47,1.2-.48,1.08-.35,1.08-.48,1.07-.48,1.2-.36,1.08-.47,1.08h20.11ZM647.17,58.79V577a133.49,133.49,0,0,1-.63,13.56c-1,9.38-1.16,18.46-9.88,28.8-.85,1-9.75,7.64-9.75,7.64-4.79,2.35-8.06,4.08-13.46,6.25L352.59,742.54c-13.5,6.2-19.17,8.62-29,8.43h-.08c-9.8.19-15.46-2.23-29-8.43L33.72,633.25c-5.4-2.17-8.67-3.9-13.46-6.25,0,0-8.9-6.64-9.75-7.64C1.79,609,1.63,599.94.63,590.56A133.49,133.49,0,0,1,0,577V58.79C0,15.84,15.84,0,58.77,0H588.4C631.32,0,647.17,15.84,647.17,58.79ZM356.61,387.73h43.8V99.8h-43.8ZM336.93,490.87l-.71-1-.6-1.07-.59-1-.59-1.08-.6-1-.72-1.07-.59-1-.6-.95-.59-1.07-.59-1-.72-1.07-.59-1-.6-1.07-.59-1-.6-1.07-.72-1-.59-1-.59-1.07-.6-1-.71-1.08-.6-1-.59-1.06-.6-1-.59-1-.72-1.07-.59-.95-.59-1.08-.6-1-.6-1.07-.71-.95-.6-1.08-.59-.95h-24.4v87h22.62V493.9l.7,1,.6,1.09.71.95.6,1.08.72,1,.59,1.08.72,1,.59,1.08.71.95.6,1.08.71,1,.6,1.08.71,1,.6,1.07.71,1,.6,1.08.71,1,.71,1.07.6,1,.71,1.08.6,1,.72,1.07.59,1,.71,1.08.59,1,.72,1.07.6,1,.71,1.08.6,1L335,525l.59,1,.72,1.08.59,1,.72,1.08h.47l.6-1,.71-1.08.6-1,.71-.95.6-1.08.71-1,.59-1,.6-1.07.72-1,.59-1,.72-1,.59-1.08.71-1,.6-1,.59-1.08.72-1,.59-1,.72-1.07.59-1,.71-1,.6-1.08.59-1,.72-1,.59-1.08.72-1,.6-.95.71-1,.59-1.08.59-1,.72-1,.6-1.07.71-1,.6-.95.71-1.09.59-.95V544.9h21.78l1.19.21v-87H359.31l-.6.95-.59,1.08-.72.95-.6,1.07-.59,1-.59,1.08-.71.95-.6,1.07-.6,1-.59,1-.72,1.06-.59,1-.6,1.08-.59,1-.71,1.07-.6,1-.59,1-.6,1.07-.6,1-.71,1.07-.59,1-.6,1.07-.59,1-.72,1.07-.59.95-.6,1-.6,1.07-.71,1-.59,1.08-.6,1-.59,1.07-.71,1-.6,1.07-.6.95-.59-.95ZM214.87,387.73h43.8V283.25h25c35.62,0,53.22-17.68,53.22-53.47V153.27c0-35.79-17.6-53.47-53.22-53.47h-68.8Zm-119.39,0h98.24v-39.9H139.27V261h51.58V221.1H139.27V139.69h53.64V99.8H95.48Zm82.9,106.52H139.11v17.44h17.42v11l-.95.6-.83.48-1.07.47-1,.48-1.07.48-1.07.24-1.19.36-1.19.24-1.19.24-1.19.12-1.31.12-1.31.12h-2.74l-1.3-.12-1.19-.12-1.19-.24-1.2-.24-1.18-.36-1.19-.36-1.08-.48-1.07-.48-1.07-.47-.95-.6-1-.6-1-.72-1-.71-.83-.72-.71-.84-.83-.83-.72-.84-.71-1-.6-1-.6-1-.59-1.08-.47-1.07-.48-1.2-.35-.95-.36-1.08-.24-1.07-.24-1.08-.24-1.08-.12-1.19-.12-1.08-.11-1.19v-2.75l.11-1.2.12-1.19.24-1.32.24-1.07.24-1.19.36-1.2.47-1.07.36-1.08.47-1.08.6-.95.59-1.08.6-.95.59-.84.72-1,.83-.83.71-.84.83-.72.84-.71.83-.72,1-.6,1-.6.95-.6,1.07-.47,1.07-.48,1.07-.36,1.07-.36,1.07-.24,1.19-.24L138,477l1.19-.11h2.49L143,477l1.35.16,1.19.12,1.19.24,1.19.24L149,478l1,.33,1.07.36,1,.36,1,.47.95.48,1.19.72.95.6,1,.6,1,.59,1,.72.95.6,1,.83,1,.72.71-.95.84-.84.71-1,.83-.95.71-1,.72-.84.83-.95.72-1,.83-1,.72-.84.7-1,.84-1,.71-.83.72-1,.83-1,.72-1,.83-.84.71-.95-1-.72-.95-.84-.95-.71-1-.72-1-.6-1-.72-1.07-.6-1-.59-1.07-.6-1-.6-1.06-.48-1.07-.59-1.08-.48-1.07-.48-1.07-.48-1.07-.36-.95-.36-1.07-.23-1.08-.36-1.07-.24-1.07-.24-1.07-.24-1.19-.24-1.19-.24-1.07-.12-1.31-.24-1.19-.12h-.95l-1.31-.12-1.31-.12h-5.11l-1.2.12-1.19.12-1.18.12-1.19.12-1.2.24-1.19.12-1.19.24-1.06.36-1.2.24-1.07.36-1.07.24-1.07.47-1.19.36-1,.36-1.19.6-1.07.48-1.07.48-1.07.59-1.08.6-1.07.6-.94.6-1,.59-1,.72-1,.6-1,.72-.83.71-1,.84-.83.72-.84.83-.83.84-.72.84-.83.83-.71.84-.71,1-.72.95-.71,1-.6,1-.6.95-.59,1-.59.95-.6,1.08-.47,1.08-.48,1.07-.48,1.08-.47,1.07-.48,1.2-.36,1.08L96,488.25l-.35,1.08-.24,1.19-.36,1.2-.23,1.07-.12,1.2-.24,1.19-.12,1.31-.12,1.2v1.19l-.11,1.32v3.94l.11,1.2.12,1.19.12,1.2.12,1.07.24,1.2.16,1.1.19,1.18.36,1.08.24,1.19.35,1.08.24,1.07.48,1.08.36,1,.47,1.07.48,1.08.48,1.07.47,1,.6,1,.27.87.59,1,.6,1,.71,1,.6,1,.72.83.71,1,.71.84.83.83.84.84.83.72.84.83.83.72.83.72,1,.72,1,.71,1,.72,1,.6,1,.59,1.07.6,1,.59,1.08.6,1.07.48,1.07.48,1.07.47,1.19.48,1.07.36,1.07.48,1.07.36,1.19.24,1.07.36,1.2.24,1.06.23,1.19.24,1.19.24,1.2.12,1.18.12,1.19.12,1.31.12,1.19.12h5.12l1.31-.12,1.19-.12,1.31-.12,1.19-.12,1.31-.12,1.18-.12,1.2-.24,1.19-.23,1.07-.24,1.19-.24,1.07-.36,1.19-.36,1.07-.36,1.07-.36,1.07-.36,1.07-.48,1.2-.47,1.07-.48,1.18-.48,1.07-.6,1.08-.47,1.07-.6,1.07-.59,1.07-.6.95-.6,1-.6,1-.71,1-.6.95-.72.83-.6,1-.71.83-.72Zm8.86,50.7h24l.48-1.08.36-1.08.47-1.07.48-1.2.35-1.07.48-1.07.47-1.08.36-1.07.48-1.08.48-1.07L216,533l.52-1.22.48-1.08.3-1.08.48-1.07H251.9l.48,1.07.35,1.08.48,1.08.48,1.19.35,1.08.48,1.07.48,1.08.38,1.07.48,1.08.48,1.07.35,1.07.48,1.2.47,1.07.36,1.08.48,1.08h23.33l1.23,0-.47-1.08-.48-1.08-.47-1.07-.36-1.2-.48-1.07-.48-1.07-.47-1.08-.48-1.07-.48-1.08L278.4,534l-.47-1.08-.36-1.07-.48-1.08-.47-1.08-.48-1.07-.48-1.2-.47-1.07-.48-1.08-.48-1.08-.35-1.07L273.4,522l-.47-1.19-.48-1.08-.47-1.07-.48-1.08-.48-1.08-.47-1.07-.36-1.2-.48-1.07-.47-1.08-.48-1.07-.48-1.08-.47-1.08-.48-1.19-.47-1.08-.36-1.07-.47-1.08-.48-1.07-.48-1.08-.48-1.2-.47-1.07-.48-1.08-.47-1.07-.36-1.08-.47-1.08-.48-1.06-.47-1.2-.48-1.07-.48-1.08-.48-1.08-.47-1.07-.36-1.08-.48-1.19-.47-1.08-.48-1.08-.47-1.07-.48-1.08-.47-1.07-.48-1.2-.36-1.07-.47-1.08-.48-1.08L254,476l-.5-1.09-.48-1.19-.47-1.08-.48-1.07-.35-1.08-.48-1.08-.48-1.07-.47-1.2-.48-1.07-.48-1.08-.48-1.08-.47-1.07-.36-1.08-.47-1.19-.47-1.08-.48-1.07-.48-1.08h-22l-.47,1.08-.48,1.07-.47,1.08-.36,1.19-.47,1.08-.48,1.07-.48,1.08-.47,1.08-.48,1.07-.48,1.2-.48,1.07-.35,1.08-.48,1.08-.47,1.07-.48,1.08-.47,1.19-.48,1.08-.47,1.07-.48,1.08-.36,1.08-.48,1.07-.47,1.2-.48,1.07-.47,1.08-.48,1.07-.47,1.08-.48,1.08-.36,1.19-.47,1.08-.48,1.07-.48,1.08-.47,1.08-.48,1.07-.47,1.2-.48,1.06-.36,1.08-.47,1.08-.48,1.07-.47,1.08-.48,1.07-.48,1.2-.47,1.08-.48,1.07-.36,1.08-.47,1.07-.48,1.08-.47,1.19-.48,1.08-.47,1.08-.48,1.07-.48,1.08-.36,1.07-.47,1.2-.48,1.07-.48,1.08-.47,1.08-.48,1.07-.47,1.08-.47,1.19-.36,1.08-.48,1.07-.48,1.08-.47,1.08-.48,1.07-.48,1.2-.47,1.07-.48,1.08-.35,1.08-.48,1.07-.47,1.08-.48,1.19-.48,1.08-.47,1.07-.48,1.08-.48,1.07-.36,1.07-.47,1.2-.48,1.07-.47,1.08Zm262.3,103.13H198.8l122.74,42.21ZM470.65,525.2H424V510.37h41.41V491.85H424V477.62h46.06V457.9H401.27v87h68.19l1.19,0Zm6.13-135h21.7c35.61,0,53.21-17.68,53.21-53.47V269.68l-43,0v65c0,11.52-5.33,16.86-16.37,16.86h-8.19c-11.46,0-16.79-5.34-16.79-16.86V152.86c0-11.52,5.33-16.87,16.79-16.87h7.36c11.06,0,16.38,5.35,16.38,16.87v56.35h43V150.39c0-35.78-17.19-53.06-52.8-53.06H476.78c-35.61,0-53.22,17.68-53.22,53.47V336.73C423.56,372.52,441.17,390.2,476.78,390.2ZM553.24,517l-.12-1.31-.12-1.2-.24-1.19-.24-1.2-.23-1.07-.36-1.08-.35-1.08-.48-.95-.6-1.08-.59-.95-.72-1.08-.71-1-.84-.83-.82-1-1-.84-1-.83-1-.6-1-.72-.94-.6-1.07-.59-1.08-.6-1.19-.6-1.19-.48-1.19-.59L534.9,495l-1.07-.35-1.07-.36-1.19-.36-1.07-.36-1.19-.36-1.19-.36-1.19-.24-1.31-.35-1.19-.36-1.31-.24-1.31-.36-1.3-.36-1.32-.36-1.19-.24-1.07-.36-1.07-.24-1-.35-1-.24-1.43-.48-1.31-.48-1.19-.48-1-.59-1.08-.6-.83-.84-.47-.72-.59-1.31-.12-1.55v-.24l.12-1.2.47-1.08.71-1.07,1.07-1,.84-.48,1-.47,1.07-.24,1.19-.24,1.31-.24h2.62l1.07.12,1.19.12,1.19.12,1.19.24,1.19.24,1.19.24,1.19.35,1.19.36L527,478l.93.47,1.07.36,1,.47,1,.74,1,.48,1.06.48,1,.6,1.07.48,1,.71,1,.6,1.06.6,1,.71.71-.95.6-1,.71-.95.72-1,.7-1.08.6-1,.72-1,.71-1,.6-1,.71-1,.72-.95.59-1,.71-1.07.72-1,.71-1,.6-.95.71-1-.95-.72-1-.71-1-.72-1-.6-1.07-.72-1-.6-1.07-.59-1.08-.6-.94-.48-1.07-.6-1.2-.47-1.07-.48-1.07-.48-1.07-.36-1.19-.48-1.07-.24-1.07-.36-1.19-.35L530.6,458l-1.19-.24-1.19-.24-1.07-.24L526,457l-1.31-.12-1.19-.24-1.31-.12H521l-1.31-.12-1.31-.12h-5.12l-1.19.12-1.18.12-1.2.12-1.19.12-1.07.24-1.18.24-1.08.24-1.07.24-.95.24-1.08.36-1.18.47-1.19.36-1.08.48-1.07.6-1.06.48-1.08.59-.95.6-.95.72-1,.72-.82.59-1,.84-.83,1-.84.83-.83,1-.72,1-.71.95-.59,1.08-.59,1.08-.48,1.07-.48,1.08-.47,1.07-.24,1.08-.36,1.07-.24,1.08-.24,1.07-.12,1.2-.12,1.08-.12,1.19v2.75l.12,1.32.12,1.19.12,1.2.24,1.07.24,1.2.36.95.35,1.08.36,1,.48.83.6,1.07.59,1,.6.83.7.84.72.84.83.84.84.83.83.72,1,.6.95.71,1.07.6,1,.6,1.19.6L497,506l1.08-.06,1.19.48,1.19.48,1.31.48,1.07.36,1.07.35,1.07.36,1.19.24,1.07.36,1.19.36,1.19.24,1.2.36,1.18.24,1.31.36,1.19.23,1.31.36,1.19.24,1.19.36,1.07.24,1.08.36.94.24.84.24,1.42.59,1.2.48,1.07.48,1,.48,1,.72.83.71.6.84.48,1.19.12,1.44v.24l-.12,1.19-.36,1.08-.48,1-.71.83-1,.72-.84.48-1,.36-1.07.24-1.07.24-1.19.23-1.31.12h-2.62l-1.31-.12h-1.18l-1.2-.23-1.31-.12-1.19-.24-1.18-.24-1.2-.24-1.07-.36-1.19-.36-1.18-.36-1.08-.48-1.07-.35-1.07-.48-1.07-.48L500.7,522l-.95-.6-1.08-.47-.95-.6-1.07-.72-.95-.6-1.07-.71-1-.72-1.07-.72-.95-.72-.71,1-.83.84-.72,1-.83,1-.72.84-.71,1-.83,1-.71.84-.84,1-.71.84-.84,1-.71,1-.71.84-.84,1-.71,1-.83.84-.72,1,1,.84.84.72.95.71,1,.72.95.72.95.72,1,.59.95.6,1.07.6.95.6,1.06.54,1.08.48,1.07.59,1.06.48,1.08.48,1.19.48,1.07.36,1.19.35,1.07.48,1.19.36,1.19.36,1.07.24,1.19.36,1.19.24,1.2.2,1.06.48,1.19.23,1.19.12,1.19.24,1.31.12,1.19.12,1.19.12h1.31l1.19.12h5l1.19-.12,1.3-.12,1.2-.12,1.07-.12L527,546l1.19-.24,1.07-.23,1.07-.24,1.19-.24,1.07-.36,1.19-.36,1.19-.36,1.19-.48,1.19-.48,1.07-.59,1.07-.48,1.08-.6,1-.72.94-.59,1-.71.83-.72,1-.84L546,537l.83-.84.71-.84.6-1,.71-1,.6-1,.6-1,.47-1.08.48-1,.47-1.07.36-1.2.24-1.07.35-1.2.24-1.19.12-1.32.12-1.19.32-1.17Z"/></svg>