<svg xmlns="http://www.w3.org/2000/svg" width="77.426" height="64" viewBox="0 0 77.426 64"><path d="M46.278,36.258V26.248l-6.148,5.6-6.149-5.6v10.01l6.149,5.69ZM35.539,29.775l4.591,4.184,4.59-4.184v5.8l-4.59,4.25-4.591-4.25Zm13.91-.865-.252.233.024,8.079-9.091,8.413-9.092-8.413.024-8.079L1.417,1.9V13.32l6.1,5.592v7.836L12.251,31.1v7.386l26.7,26.262L40.125,65.9,41.3,64.745l26.71-26.263V31.1l4.738-4.347V18.912l6.1-5.592V1.9ZM77.285,12.634l-6.1,5.592v7.836L66.451,30.41V37.8L40.125,63.594,13.809,37.8V30.41L9.07,26.063V18.227l-6.1-5.592V5.446L29.5,29.824,29.479,37.9l10.651,9.855L50.781,37.9l-.024-8.076L77.285,5.446Z" transform="translate(-1.417 -1.899)" fill="#fff"/></svg>