<svg xmlns="http://www.w3.org/2000/svg" width="670" height="375.077" viewBox="0 0 670 375.077"><path d="M110.134,356.186h11.613v3.962h-7.593v3.847h7.593v3.89h-7.593v5.6h7.593v3.977H110.134Zm34.245,0h-4.049v21.272h9.949V373.6h-5.9Zm23.5,21.272h4.02V356.186h-4.02Zm21.288-17.281h3.774v17.281h4.107V360.176h3.875v-3.991H189.166Zm29.357,17.281h11.613v-3.977h-7.593v-5.6h7.593v-3.89h-7.593v-3.847h7.593v-3.962H218.523Zm68.707-16.384a13.106,13.106,0,0,1,.643,10.565,9.4,9.4,0,0,1-2.254,3.419,7.963,7.963,0,0,1-3.114,1.88,22.166,22.166,0,0,1-5.808.521h-4.869V356.186h4.8a15.838,15.838,0,0,1,6.892,1.148A8.988,8.988,0,0,1,287.23,361.073Zm-2.633,5.951a7.047,7.047,0,0,0-1.894-5.255q-1.707-1.681-5.481-1.68h-1.374v13.42h1.88a9.425,9.425,0,0,0,4.027-.636,4.839,4.839,0,0,0,2.046-2.144A7.853,7.853,0,0,0,284.6,367.025Zm33.359-10.839,8.182,21.272h-4.209l-1.664-4.382h-8.68l-1.731,4.382h-4.208l8.2-21.272Zm.809,12.943-2.837-7.3-2.854,7.3Zm38.313,1.055-9.1-14h-3.885v21.272h4.05V363.5l9.092,13.955h3.894V356.186h-4.049Zm34.144-3.514v3.8h6.16a6.2,6.2,0,0,1-2.323,2.762,6.669,6.669,0,0,1-3.54.882,7.486,7.486,0,0,1-5.43-2.14,7.005,7.005,0,0,1-2.2-5.221,6.827,6.827,0,0,1,2.121-5.061,7.209,7.209,0,0,1,5.261-2.082,8.428,8.428,0,0,1,6.31,2.863l2.852-2.82a11.906,11.906,0,0,0-3.992-2.979,13.133,13.133,0,0,0-5.191-1.027,11,11,0,0,0-8.619,3.717,10.671,10.671,0,0,0-2.791,7.346,11.44,11.44,0,0,0,1.511,5.742,10.532,10.532,0,0,0,4.107,4.1,12.008,12.008,0,0,0,5.908,1.438,10.672,10.672,0,0,0,5.394-1.317,10.111,10.111,0,0,0,3.746-3.818,10.41,10.41,0,0,0,1.446-5.292l-.029-.9Zm29.27,10.788H432.1v-3.977h-7.592v-5.6H432.1v-3.89h-7.592v-3.847H432.1v-3.962H420.493ZM459.553,368l5.041,9.457h-4.427l-4.783-9.009h-.371v9.009h-4.049V356.186h4.289a14.239,14.239,0,0,1,5.02.628,5.163,5.163,0,0,1,2.405,2.09,6.406,6.406,0,0,1,.91,3.457,5.884,5.884,0,0,1-1.005,3.506A6.086,6.086,0,0,1,459.553,368Zm.115-5.692a2.061,2.061,0,0,0-.36-1.21,2,2,0,0,0-.966-.741,7.355,7.355,0,0,0-2.221-.225h-1.11V364.5h1.269a4.947,4.947,0,0,0,2.659-.508A1.907,1.907,0,0,0,459.668,362.309Zm40.816-3.391a10.875,10.875,0,0,1,3.249,7.969,10.754,10.754,0,0,1-3.206,7.881,11.105,11.105,0,0,1-15.737-.087,11.179,11.179,0,0,1,7.93-19.032A10.564,10.564,0,0,1,500.484,358.918Zm-.8,7.94a7.11,7.11,0,0,0-2.04-5.14,6.971,6.971,0,0,0-9.932-.051,7.148,7.148,0,0,0-2.012,5.221,6.8,6.8,0,0,0,2.534,5.582,6.94,6.94,0,0,0,4.515,1.6,6.594,6.594,0,0,0,4.909-2.082A7.073,7.073,0,0,0,499.683,366.857Zm32.871,2.578a9.267,9.267,0,0,1-.3,2.9,2.582,2.582,0,0,1-1.071,1.25,3.364,3.364,0,0,1-1.842.491,3.219,3.219,0,0,1-1.727-.44,2.494,2.494,0,0,1-1.029-1.177,7.133,7.133,0,0,1-.31-2.515V356.186h-4.064v12.682a14.047,14.047,0,0,0,.738,5.4,6.2,6.2,0,0,0,2.451,2.661,7.509,7.509,0,0,0,4.028,1.063,7.97,7.97,0,0,0,3.094-.558,6.825,6.825,0,0,0,3.732-4.113,18.424,18.424,0,0,0,.361-4.454V356.186h-4.064Zm34.6.046a8.559,8.559,0,0,0-1.745-2.378q-.494-.506-2.811-2.444a27.675,27.675,0,0,1-2.97-2.733,1.646,1.646,0,0,1-.361-1.012,1.236,1.236,0,0,1,.507-.961,1.953,1.953,0,0,1,1.3-.427q1.637,0,3.217,2.2l3-2.647a11.039,11.039,0,0,0-3.12-2.689,6.566,6.566,0,0,0-3.034-.738,5.843,5.843,0,0,0-4.162,1.585,5.021,5.021,0,0,0-1.687,3.795A5.541,5.541,0,0,0,556.3,364.1a23.727,23.727,0,0,0,4.491,4.375,15.41,15.41,0,0,1,2.36,2.213,2.413,2.413,0,0,1,.537,1.446,1.8,1.8,0,0,1-.71,1.4,2.6,2.6,0,0,1-1.751.607q-2,0-3.536-2.82l-3.4,2.054a8.815,8.815,0,0,0,2.888,3.5,7.017,7.017,0,0,0,3.96,1.114,6.6,6.6,0,0,0,4.72-1.707,5.684,5.684,0,0,0,1.809-4.324A5.971,5.971,0,0,0,567.153,369.482ZM60.238,187.675v67.413c0,17.013-11.24,23.753-28.253,23.753h-1.28c-17.018,0-28.252-6.74-28.252-23.753V187.675c0-17.175,11.235-23.756,28.252-23.756h1.28C49,163.919,60.238,170.662,60.238,187.675Zm-18.623,2.889c0-8.025-4.17-10.272-10.272-10.272s-10.272,2.247-10.272,10.272V252.2c0,8.025,4.174,10.272,10.272,10.272s10.272-2.247,10.272-10.272V190.564ZM653.193,165.2l-12.519,52.165L628.154,165.2H608.571l17.566,56.176,5.07,16.213v39.966h18.612V237.593l5.069-16.213L672.453,165.2Zm-486.08,23.755V253.8c0,17.016-11.234,23.756-28.247,23.756H110.134V165.2h28.732C155.879,165.2,167.113,171.944,167.113,188.959ZM148.5,191.847c0-8.023-4.175-10.272-10.273-10.272h-9.473v79.612h9.473c6.1,0,10.273-2.247,10.273-10.272V191.847Zm92.277,25.523L228.249,165.2H208.67l17.561,56.176,5.069,16.213v39.966h18.617V237.593l5.069-16.213L272.552,165.2H253.293Zm118.64,4.011a72.083,72.083,0,0,0-8.235-5.3L338.011,208.7c-5.3-3.049-7.22-5.617-7.22-11.4v-7.7c0-7.061,4.012-9.63,9.467-9.63s9.479,2.569,9.479,9.63v15.73h18.3v-18.3c0-16.691-12.206-23.113-27.61-23.113H340.1c-15.414,0-27.606,6.422-27.606,23.113V201.8c0,9.472,4.148,14.639,11.484,19.582,1.738,1.171,3.6,2.333,5.694,3.534l13,7.383c5.612,3.048,7.378,5.938,7.378,11.717v8.828c0,6.9-4.012,9.952-9.625,9.952s-9.634-3.052-9.634-9.952V235.826h-18.3V255.41c0,17.493,10.753,23.431,27.763,23.431h.324c17.013,0,27.767-6.1,27.767-23.431V239.2C368.348,230.69,365.089,225.724,359.413,221.38Zm101.58,0a72.364,72.364,0,0,0-8.237-5.3L439.6,208.7c-5.3-3.049-7.22-5.617-7.22-11.4v-7.7c0-7.061,4.012-9.63,9.467-9.63s9.468,2.569,9.468,9.63v15.73h18.3v-18.3c0-16.691-12.2-23.113-27.61-23.113h-.324c-15.4,0-27.6,6.422-27.6,23.113V201.8c0,9.472,4.148,14.639,11.48,19.582,1.738,1.171,3.6,2.333,5.689,3.534l13,7.383c5.622,3.048,7.389,5.938,7.389,11.717v8.828c0,6.9-4.013,9.952-9.635,9.952s-9.624-3.052-9.624-9.952V235.826h-18.3V255.41c0,17.493,10.752,23.431,27.766,23.431h.324c17.013,0,27.767-6.1,27.767-23.431V239.2C469.936,230.69,466.672,225.724,460.993,221.38Zm75.533,8.186H562.2V213.194H536.525v-31.62h30.662V165.2H517.9V277.559h49.763V261.186H536.525ZM2.454,318.223h670v-2.592h-670Zm335-206.533L320.761,96.242V70.072l16.691,15.21,16.691-15.21v26.17Zm-14.1-16.582,14.1,13.049,14.1-13.049V75.939l-14.1,12.851-14.1-12.851ZM390.1,124.6l24.026-22.3V81.754L427.3,69.664v-21.8l16.95-15.553V2.917L363.545,77.088l.066,22.467-26.158,24.2L311.3,99.556l.065-22.467L230.654,2.917v29.4l16.952,15.553v21.8l13.177,12.09V102.3l24.027,22.3H2.454v2.592H291.412L263.375,101.17V80.614L250.2,68.525v-21.8L233.246,31.176V8.82l75.522,69.4-.066,22.462,28.75,26.608,28.75-26.608-.066-22.462,75.522-69.4V31.176L424.71,46.728v21.8l-13.178,12.09V101.17L383.5,127.189H672.453V124.6Z" transform="translate(-2.453 -2.917)" fill="#fff"/></svg>