<svg id="fa5b89b1-f466-4baa-8c57-f0a9ab2c9629" data-name="steam-logo" xmlns="http://www.w3.org/2000/svg" viewBox="0 0 293.46 88.47"><defs><style>.faa8b003-5063-41c8-8f76-44278efa149e{fill:#fff;}</style></defs><g id="a81b1da6-854e-422c-9608-7b5841533059" data-name="logo"><path id="b6752d1d-1d5f-4ac1-adf5-bd535b1233b1" data-name="icon" class="faa8b003-5063-41c8-8f76-44278efa149e" d="M44.08,0A44.22,44.22,0,0,0,0,40.69l23.71,9.8a12.49,12.49,0,0,1,7.05-2.18h.69L42,33.05v-.22A16.68,16.68,0,1,1,58.68,49.52H58.3l-15,10.73v.6a12.52,12.52,0,0,1-24.8,2.46l-17-7A44.24,44.24,0,1,0,44.08,0ZM27.72,67.12l-5.43-2.24A9.4,9.4,0,1,0,27.43,52L33,54.35a6.92,6.92,0,0,1-4.94,12.93l-.38-.16ZM69.8,32.83A11.12,11.12,0,1,0,58.68,44,11.12,11.12,0,0,0,69.8,32.83Zm-19.45,0a8.35,8.35,0,1,1,8.35,8.35,8.35,8.35,0,0,1-8.35-8.35h0Z"/><path id="b5be4419-fb71-4659-bc8f-22c346b1454c" data-name="steam" class="faa8b003-5063-41c8-8f76-44278efa149e" d="M135.56,30.27l-3,5.21a14.84,14.84,0,0,0-8.08-2.56c-3.08,0-5,1.28-5,3.57,0,2.78,3.39,3.43,8.43,5.24,5.42,1.91,8.54,4.17,8.54,9.13,0,6.79-5.34,10.61-13,10.61a23.66,23.66,0,0,1-11.73-3.08l2.16-5.77a20.51,20.51,0,0,0,9.2,2.37c4,0,6-1.5,6-3.71,0-2.52-2.94-3.29-7.68-4.85-5.4-1.81-9.15-4.18-9.15-9.67,0-6.2,5-9.76,12.11-9.76A19,19,0,0,1,135.56,30.27Zm23.17,3.29V60.9h-7V33.56H141.62v-6h27.21v6Zm24.82,0v7.51H196.9v6H183.55v7.82H199v6H176.57V27.57H199v6Zm31.07,20.89-2.21,6.47H205.1l12.49-33.33h7L237.47,60.9H229.9l-2.25-6.47Zm6.44-18.91-4.55,13.35h9.2Zm52.22,4.93-9.12,19.48h-3.94l-9-19.3V60.9h-6.68V27.57h6.67l11.2,24.06,10.8-24.06H280V60.9h-6.68Z"/><path id="ac4ef812-916b-4d19-8e39-e7703ccd21c1" data-name="(R)" class="faa8b003-5063-41c8-8f76-44278efa149e" d="M293.46,31.78a4.62,4.62,0,1,1-4.61-4.64,4.5,4.5,0,0,1,4.61,4.39Zm-8.46,0a3.84,3.84,0,1,0,7.68,0h0a3.84,3.84,0,1,0-7.68,0Zm3.91-2.37c1.2,0,1.6.63,1.6,1.31a1.34,1.34,0,0,1-.82,1.26l1.07,2h-.88L289,32.2h-.93V34h-.73V29.41Zm-.86,2.13h.82a.77.77,0,0,0,.84-.68v-.07c0-.42-.23-.69-.84-.69h-.82Z"/></g></svg>